**ABCDEFGHIJKLMNOPQRSTUVWXYZabcdefghijklmnopqrstuvwxyz**************************
**PARASOLID !"#$%&'()*+,-./:;<=>?@[\]^_`{|}~0123456789**************************
**PART1;
MC=unknown;
MC_MODEL=unknown;
MC_ID=unknown;
OS=iOS;
OS_RELEASE=unknown;
FRU=Shapr3D Zrt.;
APPL=Shapr3D;
SITE=Budapest, Hungary;
USER=unknown;
FORMAT=text;
GUISE=transmit;
KEY=/Users/enzolevan/Library/Containers/com.shapr3d.shapr/Data/tmp/export/temp_export;
FILE=/Users/enzolevan/Library/Containers/com.shapr3d.shapr/Data/tmp/export/temp_export;
DATE=2023-10-17 19:54 (UTC);
**PART2;
SCH=SCH_3600180_36001;
USFLD_SIZE=0;
**PART3;
**END_OF_HEADER*****************************************************************
T51 : TRANSMIT FILE created by modeller version 360018023 SCH_3600180_36001_1300
6231 0 10 21 CCCCI7 lattice222 0 CCCI4 mesh1006 0 I8 polyline1008 0 CCCCCCCCCCA1
6 mesh_offset_data206 0 Z1 4 2 3 0 0 0 0 0 0 0 0 1e3 1e-8 0 0 4 1 0 1 5 0 81 255
 1 2 2 6 1 7 0 0 0 8 70 11 CI9 list_type0 0 1 uI10 notransmit0 0 1 lCCCDCCDI12 f
inger_index0 0 1 dI12 finger_block1012 0 CZ3 0 4 T1 0 0 2 20 1 9 9 11 255 5 4 0
 1 10 0 1 11 0 0 0 12 36 CCCI7 lattice222 0 CCCI4 mesh1006 0 I8 polyline1008 0 C
CCCCCCDI5 owner1040 0 CCCI16 boundary_lattice222 0 CCCI13 boundary_mesh1006 0 I1
7 boundary_polyline1008 0 CCCA16 index_map_offset0 0 1 dA9 index_map82 0 A17 nod
e_id_index_map82 0 A20 schema_embedding_map82 0 A5 child12 0 A14 lowest_node_id0
 0 1 dA16 mesh_offset_data206 0 Z10 1917 12 13 0 0 0 0 0 0 0 1e3 1e-8 5 0 0 1 0
 1 1 14 0 15 16 17 0 0 18 19 20 0 0 0 0 0 0 0 11 11 3 0 1 4 0 1 0 5 0 0 10 4 2 2
1 22 0 0 0 0 0 0 0 0 1e3 1e-8 11 1 0 1 0 1 0 0 81 1 21 2 6 4 23 0 0 0 24 70 22 0
 4 T4 0 0 2 20 1 25 25 74 4 CI16 index_map_offset0 0 1 dCCZ20 25 2 0 0 23 21 0 0
 0 0 0 0 0 0 0 0 0 0 0 0 0 0 0 0 81 1 23 1 26 4 0 21 0 0 27 80 7 CCCCCDI12 legal
_owners0 17 1 lCZ1 26 28 29 8017 0 0 0 0 0 0 0 0 0 TTTTTTTTTTTTTFTFT3 84 255 9 2
7 Esquisses79 255 13 29 SDL/TYSA_NAME80 1 6 26 30 8038 0 0 0 0 0 0 0 0 0 TTTTTTT
TTTTTTFTFT10 98 255 9 24 69 115 113 117 105 115 115 101 115 79 14 30 SDL/TYSA_UN
AME81 1 12 1917 6 10 31 0 0 0 32 70 13 0 4 T10 0 0 4 20 1 33 33 13 255 14 42 0 1
0 0 34 0 0 35 0 51 255 15 816 0 36 37 0 0 +-.0136 .01065038958601706 .0059 1 0 0
 4e-4 0 0 -1 31 255 16 794 0 19 38 0 0 --.0054 .01065038958601706 .0059 1 0 0 0
 0 -1 4e-4 29 255 17 785 0 20 39 0 -.0054 .01025160615826292 .00593117334997486
 19 9 CCCCCCI5 frame230 0 CA5 owner12 0 Z18 41 0 10 35 0 40 0 V0 16 255 19 792 0
 ?41 0 42 16 0 0 10 18 255 20 782 0 43 0 44 17 ?10 17 255 43 0 45 46 47 20 48 42
 0 49 +18 44 772 0 50 20 51 39 ?10 17 50 0 52 53 54 44 55 56 0 47 +18 51 762 0 4
1 44 57 58 ?10 29 39 775 0 44 58 17 .0062 .01025160615826292 .00593117334997486
 29 58 765 0 51 59 39 -.0054 .01065038958601706 .0063 29 59 761 0 57 60 58 .0062
 .01065038958601706 .0063 18 57 758 0 55 51 61 59 ?10 29 60 708 0 61 62 59 -.005
4 .01119826857115162 .0063 18 61 705 0 63 57 64 60 ?10 29 62 698 0 64 65 60 .006
2 .01119826857115162 .0063 18 64 695 0 66 61 67 62 ?10 29 65 688 0 67 68 62 -.00
54 .01154597677440346 .00614116275565111 18 67 685 0 69 64 70 65 ?10 29 68 684 0
 70 71 65 .0062 .01154597677440346 .00614116275565111 18 70 681 0 72 67 73 68 ?1
0 29 71 673 0 74 75 68 .0062 .0086054460535316 .0027 18 74 529 0 76 77 78 71 ?10
 29 75 351 0 77 79 71 .0062 .0124 .0032 18 77 96 0 80 73 74 75 ?10 29 79 350 0 7
3 81 75 -.0054 .0124 .0032 18 73 29 0 82 70 77 79 ?10 29 81 1281 0 78 83 79 -.00
54 .0086054460535316 .0027 18 78 980 0 84 74 85 81 ?10 29 83 1283 0 85 86 81 .01
375 .00685 .00384102356837645 18 85 1063 0 87 78 88 83 ?10 29 86 1284 0 88 89 83
 -.01295 .00685 .00365897643162347 18 88 1055 0 90 85 91 86 ?10 29 89 1285 0 91
 92 86 .0104 -.0097 .0027 18 91 983 0 93 88 94 89 ?10 29 92 1286 0 94 95 89 -.00
71 .002549252548813925 .0027 18 94 1009 0 96 91 97 92 ?10 29 95 1287 0 98 99 92
 -.0071 .00723 .00724 18 98 1001 0 100 101 102 95 ?10 29 99 1288 0 102 103 95 -.
0071 .0114 .0063 18 102 997 0 104 98 105 99 ?10 29 103 1289 0 105 106 99 -.0071
 .0124 .0032 18 105 993 0 107 102 108 103 ?10 29 106 1290 0 108 109 103 -.0071 .
009466 867361737988404e-33 18 108 989 0 110 105 111 106 ?10 29 109 1291 0 97 112
 106 -.0096 -.0097 .0027 18 97 1005 0 113 94 114 109 ?10 29 112 1292 0 114 115 1
09 -.0096 .00723 .00724 18 114 1003 0 116 97 117 112 ?10 29 115 1293 0 117 118 1
12 -.0096 .0114 .0063 18 117 999 0 119 114 120 115 ?10 29 118 1294 0 120 121 115
 -.0096 .0124 .0032 18 120 995 0 122 117 101 118 ?10 29 121 1295 0 101 123 118 -
.0096 .009466 867361737988404e-33 18 101 991 0 124 120 98 121 ?10 29 123 1296 0
 111 125 121 -.0071 -.0097 .0027 18 111 1007 0 126 108 127 123 ?10 29 125 1297 0
 128 129 123 -.0096 -.0129 0 18 128 1037 0 130 131 132 125 ?10 29 129 1298 0 132
 133 125 .0104 -.0129 0 18 132 1035 0 134 128 135 129 ?10 29 133 1299 0 135 136
 129 .0104 .009466 0 18 135 1031 0 137 132 138 133 ?10 29 136 1300 0 138 139 133
 .0079 .009466 0 18 138 1039 0 140 135 141 136 ?10 29 139 1301 0 141 142 136 .00
79 .00254925254881382 0 18 141 1029 0 143 138 144 139 ?10 29 142 1302 0 144 145
 139 .0062 .002549252548813825 0 18 144 1027 0 146 141 147 142 ?10 29 145 1303 0
 147 148 142 .0062 .009466 0 18 147 1021 0 149 144 150 145 ?10 29 148 1304 0 150
 151 145 -.0054 .009466 0 18 150 1019 0 152 147 153 148 ?10 29 151 1305 0 153 15
4 148 -.00540000000000007 .00254925254881392 0 18 153 1013 0 155 150 156 151 ?10
 29 154 1306 0 156 157 151 -.0071 .002549252548813925 0 18 156 1011 0 158 153 15
9 154 ?10 29 157 1307 0 127 160 154 -.0096 -.0129 .0027 18 127 981 0 161 111 162
 157 ?10 29 160 1308 0 162 163 157 .0104 -.0129 .0027 18 162 1033 0 164 127 165
 160 ?10 29 163 1309 0 165 166 160 .0079 .00254925254881382 .0027 18 165 987 0 1
67 162 168 163 ?10 29 166 1310 0 168 169 163 .0062 .002549252548813825 .0027 18
 168 1025 0 170 165 131 166 ?10 29 169 1313 0 131 171 166 -.00540000000000007 .0
0254925254881392 .0027 18 131 1015 0 172 168 128 169 ?10 29 171 1314 0 173 174 1
69 .0104 .00723 .00724 18 173 1049 0 175 176 177 171 ?10 29 174 1315 0 177 178 1
71 .0104 .0114 .0063 18 177 1045 0 179 173 180 174 ?10 29 178 1316 0 180 181 174
 .0104 .0124 .0032 18 180 1041 0 182 177 183 178 ?10 29 181 1317 0 159 184 178 .
0079 -.0097 .0027 18 159 985 0 185 156 186 181 ?10 29 184 1318 0 186 187 181 .00
79 .00723 .00724 18 186 1051 0 188 159 189 184 ?10 29 187 1319 0 189 190 184 .00
79 .0114 .0063 18 189 1047 0 191 186 176 187 ?10 29 190 1320 0 176 192 187 .0079
 .0124 .0032 18 176 1043 0 193 189 173 190 ?10 29 192 1321 0 183 194 190 -.01295
 .00685 .003841023568376525 18 183 1057 0 195 180 196 192 ?10 29 194 1322 0 196
 197 192 -.00985 .01045 .003658976431623455 18 196 1053 0 198 183 199 194 ?10 29
 197 1323 0 199 200 194 -.00985 .01045 .003841023568376545 18 199 1059 0 201 196
 202 197 ?10 29 200 1324 0 202 203 197 .01065 .01045 .003658976431623465 18 202
 1067 0 204 199 205 200 ?10 29 203 1325 0 205 206 200 .01065 .01045 .00384102356
8376535 18 205 1061 0 207 202 208 203 ?10 29 206 1326 0 208 0 203 .01375 .00685
 .003658976431623545 18 208 1065 0 209 205 0 206 ?10 17 209 0 210 204 87 208 211
 212 0 213 +15 255 210 1184 0 87 214 0 17 204 0 210 215 209 202 213 216 0 217 +1
7 87 0 210 209 215 85 218 219 0 211 +17 211 0 220 221 221 85 209 212 0 222 -16 2
12 975 0 ?209 223 224 225 0 0 10 17 213 0 226 222 227 208 204 216 0 221 -15 226
 1075 0 218 228 0 17 222 0 226 218 213 85 221 229 0 0 -17 227 0 226 213 218 202
 207 230 0 0 +16 216 977 0 ?204 219 223 231 219 219 10 17 221 0 220 211 211 208
 222 229 0 0 +15 220 1159 0 211 232 0 16 229 957 0 ?221 233 234 235 0 0 10 16 23
3 911 0 ?236 237 229 238 0 0 10 16 234 959 0 ?239 229 240 241 0 0 10 31 235 1272
 0 229 242 243 0 +.01375 .00865 .00375 1 0 0 0 0 -1 .0018023 31 242 1273 0 240 2
41 235 0 +-.0096 .00865 .00375 1 0 0 0 0 -1 .0018023 31 243 1271 0 244 235 245 0
 +.0104 .00865 .00375 1 0 0 0 0 -1 .0018023 16 244 839 0 ?246 247 248 243 0 0 10
 30 255 245 1270 0 249 243 250 0 +.0079 -.001717 .0027 0 -1 0 16 249 907 0 ?251
 252 253 245 0 0 10 31 250 1269 0 252 245 254 0 +.0079 .00856119236644056 .00377
4651124019805 1 0 0 0 0 -1 .00388158060096804 16 252 941 0 ?255 256 249 250 0 0
 10 31 254 1268 0 256 250 257 0 +.0079 .00877650264092857 .00374242020675115 1 0
 0 0 0 -1 .00366387128484198 16 256 945 0 ?258 259 252 254 0 0 10 31 257 1267 0
 259 254 260 0 +.0079 .00859197238400067 .0035625264268966 1 0 0 0 0 -1 .0039215
78847308105 16 259 949 0 ?261 262 256 257 0 0 10 134 255 260 1266 0 262 257 238
 0 +263 264 16 262 909 0 ?265 266 259 260 0 0 10 31 238 1265 0 233 260 267 0 +.0
104 .00856119236644056 .003774651124019805 1 0 0 0 0 -1 .00388158060096804 136 2
55 263 3 15 3 13 6 FFF1 268 269 270 135 255 264 2 0 45 255 45 268 .0079 -.0097 .
0027 .0079 -.0065627157792928 .002813305231610235 .0079 -.00567759866159969 .002
905831816885825 .0079 -.00269850046133363 .00330259570333907 .0079 -.00099345961
2009071 .00367699452169692 .0079 .000110519204702429 .003929474863812305 .0079 .
001208210611521524 .00424382924399792 .0079 .00225760638806497 .0045962483192734
5 .0079 .003260243871442935 .00497034330990983 .0079 .004323723302043265 .005448
85625637287 .0079 .00489165081467931 .00576086726782802 .0079 .00587621675026083
 .00634558783920795 .0079 .00631097518956021 .00676708833645091 .0079 .006518799
07425204 .00681375344070941 .0079 .00723 .00724 127 255 15 269 4 1 1 1 1 1 1 1 1
 1 1 1 4 0 0 128 255 15 270 0 .1638177998193575 .2678275996833125 .3604638093574
715 .440972459045718 .515199241378454 .589925128054011 .664702706965925 .7349159
72725894 .805129238485863 .866402782132182 .923177883705942 1 ??31 267 1264 0 23
7 238 271 0 +.0104 .00877650264092857 .00374242020675115 1 0 0 0 0 -1 .003663871
28484198 16 237 913 0 ?272 273 233 267 0 0 10 31 271 1263 0 273 267 274 0 +.0104
 .00859197238400067 .0035625264268966 1 0 0 0 0 -1 .003921578847308105 16 273 91
5 0 ?275 253 237 271 0 0 10 134 274 1262 0 253 271 276 0 +277 278 16 253 953 0 ?
279 249 273 274 0 0 10 30 276 1261 0 266 274 280 0 +.0079 -.0097 .0027 1 0 0 136
 277 3 15 3 13 6 FFF1 281 282 283 135 278 2 0 45 45 281 .0104 -.0097 .0027 .0104
 -.0065627157792928 .002813305231610235 .0104 -.00567759866159969 .0029058318168
85825 .0104 -.00269850046133363 .00330259570333907 .0104 -.000993459612009071 .0
0367699452169692 .0104 .000110519204702429 .003929474863812305 .0104 .0012082106
11521524 .00424382924399792 .0104 .00225760638806497 .00459624831927345 .0104 .0
03260243871442935 .00497034330990983 .0104 .004323723302043265 .0054488562563728
7 .0104 .00489165081467931 .00576086726782802 .0104 .00587621675026083 .00634558
783920795 .0104 .00631097518956021 .00676708833645091 .0104 .00651879907425204 .
00681375344070941 .0104 .00723 .00724 127 15 282 4 1 1 1 1 1 1 1 1 1 1 1 4 0 0 1
28 15 283 0 .1638177998193575 .2678275996833125 .3604638093574715 .4409724590457
18 .515199241378454 .589925128054011 .664702706965925 .734915972725894 .80512923
8485863 .866402782132182 .923177883705942 1 ??16 266 955 0 ?284 285 262 276 0 0
 10 30 280 1260 0 285 276 286 0 +.0079 .00723 .00724 1 0 0 16 285 951 0 ?175 287
 266 280 0 0 10 30 286 1259 0 287 280 288 0 +.0079 .0114 .0063 1 0 0 16 287 947
 0 ?179 289 285 286 0 0 10 30 288 1258 0 289 286 290 0 +.0079 .0124 .0032 1 0 0
 16 289 943 0 ?182 291 287 288 0 0 10 30 290 1257 0 292 288 293 0 +-.0096 -.0017
17 .0027 0 -1 0 16 292 847 0 ?161 294 295 290 0 0 10 31 293 1256 0 294 290 296 0
 +-.00625 .002549252548813925 .0027 0 0 -1 -1 0 0 .000849999999999932 16 294 843
 0 ?297 298 292 293 0 0 10 30 296 1255 0 298 293 299 0 +-.0054 .0060076262744069
6 .0027 -31350058105695e-30 1 0 16 298 887 0 ?300 301 294 296 0 0 10 30 299 1253
 0 301 296 302 0 +.0062 .00600762627440691 .0027 0 -1 0 16 301 897 0 ?170 303 29
8 299 0 0 10 31 302 1252 0 303 299 304 0 +.00705 .002549252548813825 .0027 0 0 -
1 -1 0 0 .000849999999999983 16 303 849 0 ?305 306 301 302 0 0 10 30 304 1251 0
 306 302 307 0 +.0104 -.001717 .0027 0 -1 0 16 306 917 0 ?164 308 303 304 0 0 10
 30 307 1250 0 308 304 309 0 +.00915 -.0129 .0027 -1 693889390390723e-30 0 16 30
8 921 0 ?310 311 306 307 0 0 10 30 309 1249 0 291 307 312 0 +-.0096 -.001717 0 0
 -1 0 16 291 871 0 ?313 314 289 309 0 0 10 30 312 1248 0 314 309 315 0 +-.0071 .
00600762627440696 0 0 1 0 16 314 873 0 ?316 317 291 312 0 0 10 31 315 1247 0 317
 312 318 0 +-.00625 .002549252548813925 0 0 0 -1 -1 0 0 .000849999999999932 16 3
17 883 0 ?319 320 314 315 0 0 10 30 318 1246 0 320 315 321 0 +-.0054 .0060076262
7440696 0 -31350058105695e-30 1 0 16 320 927 0 ?152 322 317 318 0 0 10 30 321 12
44 0 322 318 323 0 +.0062 .00600762627440691 0 0 -1 0 16 322 931 0 ?324 325 320
 321 0 0 10 31 323 1243 0 325 321 326 0 +.00705 .002549252548813825 0 0 0 -1 -1
 0 0 .000849999999999983 16 325 903 0 ?327 328 322 323 0 0 10 30 326 1242 0 328
 323 329 0 +.0079 .00600762627440691 0 0 1 0 16 328 933 0 ?140 330 325 326 0 0 1
0 30 329 1241 0 330 326 331 0 +.00915 .009466 0 1 0 0 16 330 935 0 ?332 333 328
 329 0 0 10 30 331 1240 0 333 329 334 0 +.0104 -.001717 0 0 -1 0 16 333 937 0 ?3
35 295 330 331 0 0 10 30 334 1239 0 295 331 336 0 +.00915 -.0129 0 -1 6938893903
90723e-30 0 16 295 939 0 ?337 292 333 334 0 0 10 30 336 1238 0 311 334 338 0 +-.
0096 -.0129 .0027 0 0 -1 16 311 923 0 ?130 339 308 336 0 0 10 30 338 1237 0 339
 336 340 0 +.0104 -.0129 .0027 0 0 -1 16 339 919 0 ?134 341 311 338 0 0 10 30 34
0 1236 0 341 338 342 0 +.0079 .00254925254881382 .0027 0 0 -1 16 341 905 0 ?143
 343 339 340 0 0 10 30 342 1235 0 343 340 344 0 +.0062 .002549252548813825 .0027
 0 0 -1 16 343 901 0 ?146 345 341 342 0 0 10 30 344 1232 0 345 342 346 0 +-.0054
0000000000007 .00254925254881392 .0027 0 0 -1 16 345 885 0 ?155 347 343 344 0 0
 10 30 346 1231 0 347 344 348 0 +-.0071 .002549252548813925 .0027 0 0 -1 16 347
 881 0 ?158 349 345 346 0 0 10 31 348 1230 0 350 346 351 0 +-.0096 .008561192366
44056 .003774651124019805 1 0 0 0 0 -1 .00388158060096804 16 350 851 0 ?352 353
 354 348 0 0 10 31 351 1229 0 353 348 355 0 +-.0096 .00877650264092857 .00374242
020675115 1 0 0 0 0 -1 .00366387128484198 16 353 855 0 ?356 357 350 351 0 0 10 3
1 355 1228 0 357 351 358 0 +-.0096 .00859197238400067 .0035625264268966 1 0 0 0
 0 -1 .003921578847308105 16 357 859 0 ?359 360 353 355 0 0 10 134 358 1227 0 36
0 355 361 0 +362 363 16 360 869 0 ?364 365 357 358 0 0 10 30 361 1226 0 349 358
 366 0 +-.0071 -.001717 .0027 0 -1 0 136 362 3 15 3 13 6 FFF1 367 368 369 135 36
3 2 0 45 45 367 -.0096 -.0097 .0027 -.0096 -.0065627157792928 .00281330523161023
5 -.0096 -.00567759866159969 .002905831816885825 -.0096 -.00269850046133363 .003
30259570333907 -.0096 -.000993459612009071 .00367699452169692 -.0096 .0001105192
04702429 .003929474863812305 -.0096 .001208210611521524 .00424382924399792 -.009
6 .00225760638806497 .00459624831927345 -.0096 .003260243871442935 .004970343309
90983 -.0096 .004323723302043265 .00544885625637287 -.0096 .00489165081467931 .0
0576086726782802 -.0096 .00587621675026083 .00634558783920795 -.0096 .0063109751
8956021 .00676708833645091 -.0096 .00651879907425204 .00681375344070941 -.0096 .
00723 .00724 127 15 368 4 1 1 1 1 1 1 1 1 1 1 1 4 0 0 128 15 369 0 .163817799819
3575 .2678275996833125 .3604638093574715 .440972459045718 .515199241378454 .5899
25128054011 .664702706965925 .734915972725894 .805129238485863 .866402782132182
 .923177883705942 1 ??16 349 845 0 ?370 371 347 361 0 0 10 31 366 1225 0 371 361
 372 0 +-.0071 .00856119236644056 .003774651124019805 1 0 0 0 0 -1 .003881580600
96804 16 371 875 0 ?373 374 349 366 0 0 10 31 372 1224 0 374 366 375 0 +-.0071 .
00877650264092857 .00374242020675115 1 0 0 0 0 -1 .00366387128484198 16 374 877
 0 ?376 377 371 372 0 0 10 31 375 1223 0 377 372 378 0 +-.0071 .0085919723840006
7 .0035625264268966 1 0 0 0 0 -1 .003921578847308105 16 377 879 0 ?379 354 374 3
75 0 0 10 134 378 1222 0 354 375 380 0 +381 382 16 354 863 0 ?383 350 377 378 0
 0 10 30 380 1221 0 365 378 384 0 +-.0096 -.0097 .0027 1 0 0 136 381 3 15 3 13 6
 FFF1 385 386 387 135 382 2 0 45 45 385 -.0071 -.0097 .0027 -.0071 -.00656271577
92928 .002813305231610235 -.0071 -.00567759866159969 .002905831816885825 -.0071
 -.00269850046133363 .00330259570333907 -.0071 -.000993459612009071 .00367699452
169692 -.0071 .000110519204702429 .003929474863812305 -.0071 .001208210611521524
 .00424382924399792 -.0071 .00225760638806497 .00459624831927345 -.0071 .0032602
43871442935 .00497034330990983 -.0071 .004323723302043265 .00544885625637287 -.0
071 .00489165081467931 .00576086726782802 -.0071 .00587621675026083 .00634558783
920795 -.0071 .00631097518956021 .00676708833645091 -.0071 .00651879907425204 .0
0681375344070941 -.0071 .00723 .00724 127 15 386 4 1 1 1 1 1 1 1 1 1 1 1 4 0 0 1
28 15 387 0 .1638177998193575 .2678275996833125 .3604638093574715 .4409724590457
18 .515199241378454 .589925128054011 .664702706965925 .734915972725894 .80512923
8485863 .866402782132182 .923177883705942 1 ??16 365 865 0 ?388 389 360 380 0 0
 10 30 384 1220 0 389 380 390 0 +-.0096 .00723 .00724 1 0 0 16 389 861 0 ?100 39
1 365 384 0 0 10 30 390 1219 0 391 384 392 0 +-.0096 .0114 .0063 1 0 0 16 391 85
7 0 ?104 393 389 390 0 0 10 30 392 1218 0 393 390 394 0 +-.0096 .0124 .0032 1 0
 0 16 393 853 0 ?107 248 391 392 0 0 10 30 394 1217 0 248 392 395 0 +-.0096 .009
466 867361737988404e-33 1 0 0 16 248 925 0 ?396 244 393 394 0 0 10 32 255 395 12
16 0 247 394 397 0 --.00775967741935484 .00865 .00375 .652523135359878 .75776880
2353406 0 .757768802353406 -.652523135359878 0 .0027620476613538 .0018023 16 247
 963 0 ?198 230 244 395 0 0 10 32 397 1215 0 230 395 398 0 +.00855967741935484 .
00865 .00375 -.652523135359878 .757768802353406 0 -.757768802353406 -.6525231353
59878 0 .0027620476613538 .0018023 16 230 841 0 ?227 399 247 397 0 0 10 30 398 6
03 0 400 397 401 0 +.0062 .010433 .0063 0 -1 4484807331894535e-31 16 400 696 0 ?
54 402 399 398 0 0 10 31 401 13 0 403 398 404 0 +-.0054 .00856119236644056 .0037
74651124019805 1 0 0 0 0 -1 .00388158060096804 16 403 11 0 ?405 406 407 401 0 0
 10 30 404 143 0 408 401 409 0 +-.0054 .009466 867361737988404e-33 1 0 0 16 408
 119 0 ?410 411 412 404 0 0 10 31 409 354 0 407 404 413 0 +.0062 .00877650264092
857 .00374242020675115 1 0 0 0 0 -1 .00366387128484198 16 407 78 0 ?414 403 415
 409 0 0 10 31 413 359 0 406 409 416 0 +-.0054 .00877650264092857 .0037424202067
5115 1 0 0 0 0 -1 .00366387128484198 16 406 14 0 ?417 412 403 413 0 0 10 30 416
 360 0 412 413 418 0 +-.0054 .0124 .0032 1 0 0 16 412 118 0 ?80 408 406 416 0 0
 10 31 418 361 0 415 416 419 0 +.0062 .00856119236644056 .003774651124019805 1 0
 0 0 0 -1 .00388158060096804 16 415 81 0 ?420 407 421 418 0 0 10 30 419 480 0 41
1 418 422 0 +-.0054 -.0016 .0063 0 -1 4484807331894535e-31 16 411 706 0 ?423 424
 408 419 0 0 10 30 422 674 0 402 419 425 0 +-.0136 .0086054460535316 .0027 1 0 0
 16 402 507 0 ?426 421 400 422 0 0 10 31 425 675 0 421 422 427 0 +-.0054 .005533
41078103517 .0063 1 0 0 0 0 -1 .00473258921896484 16 421 499 0 ?49 415 402 425 0
 0 10 31 427 677 0 399 425 428 0 +.0062 .00553341078103517 .0063 1 0 0 0 0 -1 .0
0473258921896484 16 399 524 0 ?47 400 230 427 0 0 10 30 428 691 0 424 427 429 0
 +-.0054 .01154597677440346 .00614116275565111 1 0 0 16 424 689 0 ?430 431 411 4
28 0 0 10 31 429 701 0 431 428 432 0 +.0062 .01119826857115162 .00584 1 0 0 0 0
 -1 46e-5 16 431 699 0 ?66 433 424 429 0 0 10 30 432 711 0 433 429 434 0 --.0136
 .01119826857115162 .0063 1 0 0 16 433 709 0 ?63 435 431 432 0 0 10 31 434 717 0
 435 432 436 0 --.0054 .01119826857115162 .00584 1 0 0 0 0 -1 46e-5 16 435 715 0
 ?69 437 433 434 0 0 10 30 436 768 0 437 434 438 0 -.0062 .01065038958601706 .00
63 -1 0 0 16 437 766 0 ?439 56 435 436 0 0 10 31 438 778 0 56 436 38 0 +.0062 .0
1065038958601706 .0059 1 0 0 0 0 -1 4e-4 16 56 776 0 ?50 42 437 438 0 0 10 30 38
 788 0 42 438 16 0 --.0136 .01025160615826292 .00593117334997486 1 0 0 16 42 786
 0 ?43 19 56 38 0 0 10 17 439 0 440 441 423 57 442 437 0 54 +15 440 555 0 423 44
3 0 17 441 0 440 63 439 64 54 400 0 444 -17 423 0 440 439 63 51 445 411 0 442 +1
7 442 0 446 447 55 51 439 437 0 0 -17 54 0 52 50 66 57 441 400 0 0 +15 52 1340 0
 53 448 0 17 66 0 52 54 414 64 72 431 0 441 +17 414 0 52 66 420 70 449 407 0 0 +
17 72 0 450 451 444 70 66 431 0 430 -15 450 728 0 452 453 0 17 451 0 450 452 72
 67 430 424 0 0 -17 444 0 450 72 452 64 63 433 0 0 -17 430 0 454 449 417 70 451
 424 0 414 +15 454 125 0 417 455 0 17 449 0 454 82 430 77 414 407 0 420 -17 417
 0 454 430 82 67 456 406 0 451 +17 82 0 454 417 449 73 80 412 0 405 -17 456 0 45
7 458 69 73 417 406 0 0 -15 457 1341 0 300 459 0 17 458 0 457 460 456 150 405 40
3 0 0 -17 69 0 457 456 445 67 452 435 0 417 +17 445 0 457 69 41 61 423 411 0 452
 -17 452 0 450 444 451 61 69 435 0 0 -17 41 0 457 445 49 51 447 19 0 423 +17 49
 0 457 41 300 20 46 421 0 447 +17 447 0 446 48 442 20 41 19 0 0 -15 446 805 0 44
7 36 0 17 48 0 446 55 447 44 43 42 0 0 -17 55 0 446 442 48 57 50 56 0 439 -14 25
5 36 804 461 ?228 453 446 14 15 +0 0 228 453 40 81 1 461 1901 462 36 463 0 464 4
65 466 14 228 1071 464 ?467 36 468 14 469 -0 0 467 36 40 14 453 727 465 ?36 470
 450 14 37 +0 0 36 470 40 13 40 145 0 0 0 0 0 0 18 34 14 34 128 471 ?455 0 472 1
4 473 +0 0 455 0 40 81 1 471 1915 462 34 474 0 475 0 476 14 455 126 475 ?459 34
 454 14 477 +0 0 459 34 40 15 472 127 0 478 34 0 51 473 136 0 34 479 480 0 +-.00
54 .00856119236644056 .003774651124019805 1 0 0 .00388158060096804 0 0 -1 50 255
 479 3 0 459 481 473 0 +-.0054 -.0016 0 1 0 0 0 1 0 50 480 345 0 448 473 477 0 +
.0062 -.0016 0 1 0 0 0 1 0 14 448 68 482 ?443 459 52 14 480 +0 0 443 459 40 51 4
77 363 0 455 480 483 0 +-.0054 .00877650264092857 .00374242020675115 1 0 0 .0036
6387128484198 0 0 -1 51 483 669 0 470 477 37 0 +-.0136 .00553341078103517 .0063
 1 0 0 .00473258921896484 0 0 -1 14 470 568 484 ?453 443 45 14 483 -0 0 453 443
 40 51 37 739 0 453 483 15 0 +-.0054 .01119826857115162 .00584 1 0 0 46e-5 0 0 -
1 81 1 484 1905 462 470 485 0 465 486 487 14 443 572 486 ?470 448 440 14 481 +0
 0 470 448 40 15 45 559 0 47 470 0 17 47 0 45 43 426 44 53 399 0 48 +17 426 0 45
 47 46 74 84 402 0 53 +17 53 0 52 170 50 74 47 399 0 0 -17 170 0 52 146 53 168 7
6 301 0 488 +17 146 0 52 149 170 144 488 343 0 327 +17 76 0 489 84 305 74 170 30
1 0 426 -17 488 0 490 491 327 168 146 343 0 305 -15 490 1122 0 327 492 0 17 491
 0 490 143 488 165 305 303 0 0 -17 327 0 490 488 143 144 493 325 0 324 +17 305 0
 489 76 167 168 491 303 0 0 +15 489 1079 0 84 467 0 17 167 0 489 305 185 165 251
 249 0 494 -17 185 0 489 167 93 159 284 266 0 251 -17 251 0 495 265 494 159 167
 249 0 496 +17 494 0 495 251 497 165 143 341 0 491 -15 495 1126 0 498 499 0 17 4
97 0 495 494 498 141 140 328 0 493 -17 143 0 490 327 491 141 494 341 0 497 +17 4
98 0 495 497 500 138 255 252 0 0 -17 140 0 501 332 493 138 497 328 0 502 +17 493
 0 501 140 324 141 327 325 0 0 -15 501 1139 0 503 504 0 17 324 0 501 493 410 144
 149 322 0 0 +17 410 0 501 324 152 147 505 408 0 478 +17 149 0 52 420 146 147 32
4 322 0 410 -17 420 0 52 414 149 77 478 415 0 0 +17 478 0 472 505 80 147 420 415
 0 0 -17 505 0 472 405 478 150 410 408 0 458 -17 80 0 472 478 405 77 82 412 0 44
9 +17 405 0 472 80 505 73 458 403 0 456 +17 152 0 501 410 506 150 460 320 0 505
 +17 506 0 501 152 507 153 319 317 0 0 -17 460 0 457 172 458 153 152 320 0 506 -
17 172 0 457 300 460 131 155 345 0 508 -17 300 0 457 49 172 78 509 298 0 46 +17
 155 0 510 319 508 153 172 345 0 460 +17 508 0 510 155 511 131 297 294 0 509 -15
 510 1108 0 319 512 0 17 511 0 510 508 319 94 158 347 0 297 -17 297 0 489 370 50
9 94 508 294 0 0 +17 509 0 489 297 84 131 300 298 0 0 -17 84 0 489 509 76 78 426
 402 0 300 -17 370 0 489 513 297 111 96 349 0 0 +17 513 0 489 161 370 97 388 365
 0 514 -17 96 0 515 158 126 94 370 349 0 511 -15 515 1104 0 316 516 0 17 158 0 5
15 316 96 156 511 347 0 319 +17 126 0 515 96 379 111 383 354 0 388 -17 379 0 515
 126 376 98 517 377 0 0 +17 383 0 518 116 388 98 126 354 0 379 +17 388 0 518 383
 113 111 513 365 0 370 +15 518 1095 0 383 519 0 17 113 0 518 388 116 97 364 360
 0 513 -17 116 0 518 113 383 114 100 389 0 359 -17 364 0 520 521 514 114 113 360
 0 0 +15 520 1100 0 514 522 0 17 521 0 520 523 364 117 359 357 0 0 -17 514 0 520
 364 524 97 161 292 0 0 -17 524 0 520 514 313 127 130 311 0 310 -17 161 0 489 52
5 513 127 514 292 0 524 +17 525 0 489 93 161 162 310 308 0 0 -17 93 0 489 185 52
5 91 164 306 0 284 -17 310 0 526 130 527 127 525 308 0 0 +15 526 1135 0 528 529
 0 17 130 0 526 528 310 128 524 311 0 337 +17 527 0 526 310 528 162 134 339 0 52
5 -17 528 0 526 527 130 132 337 295 0 335 -17 134 0 530 137 164 132 527 339 0 52
8 +15 530 1131 0 137 531 0 17 137 0 530 236 134 135 335 333 0 332 -17 164 0 530
 134 532 162 93 306 0 527 +17 532 0 530 164 275 91 279 253 0 0 -17 275 0 530 532
 272 173 533 273 0 0 +17 279 0 534 188 284 173 532 253 0 275 +15 534 1155 0 279
 535 0 17 188 0 534 496 279 186 175 285 0 261 -17 284 0 534 279 496 91 185 266 0
 532 +17 496 0 534 284 188 159 265 262 0 0 -17 265 0 495 536 251 186 496 262 0 0
 +17 536 0 495 500 265 189 261 259 0 0 -17 500 0 495 498 536 176 258 256 0 0 -17
 261 0 537 175 191 186 536 259 0 265 +15 537 1151 0 533 538 0 17 175 0 537 533 2
61 173 188 285 0 279 +17 191 0 537 261 533 189 179 287 0 258 -17 533 0 537 191 1
75 177 275 273 0 272 -17 179 0 539 540 258 177 191 287 0 533 +17 258 0 539 179 1
93 189 500 256 0 536 +15 539 1147 0 540 541 0 17 193 0 539 258 540 176 182 289 0
 255 -17 540 0 539 193 179 180 272 237 0 236 -17 182 0 542 543 255 180 193 289 0
 540 +17 255 0 542 182 502 176 498 252 0 500 +15 542 1143 0 543 544 0 17 502 0 5
42 255 543 138 332 330 0 498 -17 543 0 542 502 182 135 236 233 0 0 -17 332 0 501
 335 140 135 502 330 0 543 +17 335 0 501 337 332 132 137 333 0 0 +17 337 0 501 5
03 335 128 528 295 0 313 +17 503 0 501 396 337 101 313 291 0 0 -17 313 0 520 524
 545 128 503 291 0 0 +17 545 0 520 313 523 101 352 350 0 503 -17 523 0 520 545 5
21 120 356 353 0 0 -17 352 0 546 107 124 120 545 350 0 523 +15 546 1083 0 110 54
7 0 17 107 0 546 110 352 105 122 393 0 548 +17 124 0 546 352 110 101 396 248 0 5
45 -17 110 0 546 124 107 108 373 371 0 316 -17 396 0 501 507 503 108 124 248 0 0
 +17 507 0 501 506 396 156 316 314 0 0 -17 316 0 515 373 158 108 507 314 0 396 +
17 373 0 515 376 316 105 110 371 0 0 +17 376 0 515 379 373 102 548 374 0 0 +17 5
48 0 549 122 104 105 376 374 0 373 -15 549 1087 0 548 550 0 17 122 0 549 356 548
 120 107 393 0 352 -17 104 0 549 548 356 102 119 391 0 517 +17 356 0 549 104 122
 117 523 353 0 521 +17 119 0 551 359 517 117 104 391 0 356 -17 517 0 551 119 100
 102 379 377 0 376 -15 551 1091 0 517 552 0 17 100 0 551 517 359 98 116 389 0 38
3 +17 359 0 551 100 119 114 521 357 0 364 +14 552 1088 553 ?519 550 551 14 554 +
0 0 519 550 40 81 1 553 1891 462 552 555 0 556 557 558 14 519 1092 556 ?522 552
 518 14 559 -0 0 522 552 40 14 550 1084 557 ?552 547 549 14 560 +0 0 552 547 40
 51 554 1189 0 552 559 560 0 +-.0096 .00859197238400067 .0035625264268966 1 0 0
 .003921578847308105 0 0 -1 124 255 559 1190 0 519 561 554 0 +562 563 51 560 118
8 0 550 554 564 0 +-.0096 .00877650264092857 .00374242020675115 1 0 0 .003663871
28484198 0 0 -1 51 564 1187 0 547 560 481 0 +-.0096 .00856119236644056 .00377465
1124019805 1 0 0 .00388158060096804 0 0 -1 14 547 1080 565 ?550 467 546 14 564 +
0 0 550 467 40 50 481 592 0 443 564 479 0 +-.0136 .010433 .0063 0 44848073318945
35e-31 1 0 -1 4484807331894535e-31 81 1 565 1895 462 547 566 0 557 567 568 14 46
7 1076 567 ?547 228 489 14 569 -0 0 547 228 40 81 1 567 1897 462 467 570 0 565 4
64 571 50 569 1202 0 467 572 573 0 +-.0036 -.0016 .0027 0 0 -1 -1 0 0 51 572 120
3 0 544 574 569 0 +.0079 .00856119236644056 .003774651124019805 1 0 0 .003881580
60096804 0 0 -1 50 573 1201 0 504 569 575 0 +-.0036 -.0016 0 0 0 -1 -1 0 0 14 50
4 1136 576 ?544 529 501 14 573 +0 0 544 529 40 50 575 1200 0 529 573 577 0 +.009
15 -.0129 .0027 -693889390390723e-30 -1 0 1 -693889390390723e-30 0 14 529 1132 5
78 ?504 531 526 14 575 +0 0 504 531 40 50 577 1199 0 531 575 579 0 +.0104 -.0017
17 .0027 1 0 0 0 0 -1 14 531 1127 580 ?529 499 581 14 577 +0 0 529 499 40 50 579
 1198 0 499 577 582 0 +.0079 .00600762627440691 .0027 -1 0 0 0 0 1 14 499 1123 5
83 ?531 492 495 14 579 +0 0 531 492 40 51 582 1197 0 492 579 584 0 +.00705 .0025
49252548813825 .0027 0 0 -1 .000849999999999983 -1 0 0 14 492 1119 585 ?499 512
 490 14 582 -0 0 499 512 40 51 584 1193 0 512 582 586 0 +-.00625 .00254925254881
3925 .0027 0 0 -1 .000849999999999932 -1 0 0 14 512 1105 587 ?492 516 510 14 584
 -0 0 492 516 40 50 586 1192 0 522 584 561 0 +-.0096 -.0016 0 1 0 0 0 1 0 14 522
 1096 588 ?516 519 589 14 586 -0 0 516 519 40 50 561 1191 0 516 586 559 0 +-.007
1 -.0016 0 1 0 0 0 1 0 14 516 1101 590 ?512 522 515 14 561 +0 0 512 522 40 81 1
 590 1885 462 516 591 0 587 588 592 80 1 462 593 594 8015 0 0 0 0 3 5 0 0 0 FFFF
TFFFFFFFFFFFF2 81 1 591 1884 595 516 0 590 596 597 598 81 1 587 1883 462 512 596
 0 585 590 599 81 1 588 1887 462 522 597 0 590 556 600 83 255 1 592 0 81 1 597 1
886 595 522 0 588 591 601 602 81 1 556 1889 462 519 601 0 588 553 603 83 1 600 0
 81 1 601 1888 595 519 0 556 597 555 604 83 1 603 0 80 1 595 0 605 8001 0 0 0 0
 3 5 0 0 0 FFFFTFTFFFFFFFFFF2 81 1 555 1890 595 552 0 553 601 606 607 83 3 604 .
494117647058824 .494117647058824 .525490196078431 81 1 606 1892 595 550 0 557 55
5 566 608 83 3 607 .494117647058824 .494117647058824 .525490196078431 81 1 557 1
893 462 550 606 0 553 565 609 81 1 566 1894 595 547 0 565 606 570 610 83 3 608 .
494117647058824 .494117647058824 .525490196078431 81 1 570 1896 595 467 0 567 56
6 611 612 83 3 610 .494117647058824 .494117647058824 .525490196078431 81 1 611 1
898 595 228 0 464 570 463 613 83 3 612 .494117647058824 .494117647058824 .525490
196078431 81 1 464 1899 462 228 611 0 567 461 614 81 1 463 1900 595 36 0 461 611
 615 616 83 3 613 .494117647058824 .494117647058824 .525490196078431 81 1 615 19
02 595 453 0 465 463 485 617 83 3 616 .494117647058824 .494117647058824 .5254901
96078431 81 1 465 1903 462 453 615 0 461 484 618 81 1 485 1904 595 470 0 484 615
 619 620 83 3 617 .494117647058824 .494117647058824 .525490196078431 81 1 619 19
06 595 443 0 486 485 621 622 83 3 620 .494117647058824 .494117647058824 .5254901
96078431 81 1 486 1907 462 443 619 0 484 482 623 81 1 621 1908 595 448 0 482 619
 624 625 83 3 622 .494117647058824 .494117647058824 .525490196078431 81 1 482 19
09 462 448 621 0 486 626 627 81 1 624 1910 595 459 0 626 621 628 629 83 3 625 .4
94117647058824 .494117647058824 .525490196078431 14 459 1 626 ?448 455 457 14 47
9 -0 0 448 455 40 81 1 626 1911 462 459 624 0 482 475 630 81 1 628 1912 595 455
 0 475 624 474 631 83 3 629 .494117647058824 .494117647058824 .525490196078431 8
1 1 475 1913 462 455 628 0 626 471 632 81 1 474 1914 595 34 0 471 628 0 633 83 3
 631 .494117647058824 .494117647058824 .525490196078431 83 3 633 .49411764705882
4 .494117647058824 .525490196078431 83 1 632 0 83 1 630 0 83 1 627 0 83 1 623 0
 83 1 618 0 83 1 614 0 83 1 609 0 79 15 605 SDL/TYSA_COLOUR83 3 602 .49411764705
8824 .494117647058824 .525490196078431 81 1 596 1882 595 512 0 587 634 591 635 8
1 1 585 1881 462 492 634 0 583 587 636 83 1 599 0 81 1 634 1880 595 492 0 585 63
7 596 638 81 1 583 1879 462 499 637 0 580 585 639 83 1 636 0 81 1 637 1878 595 4
99 0 583 640 634 641 81 1 580 1877 462 531 640 0 578 583 642 83 1 639 0 81 1 640
 1876 595 531 0 580 643 637 644 81 1 578 1875 462 529 643 0 576 580 645 83 1 642
 0 81 1 643 1874 595 529 0 578 646 640 647 81 1 576 1873 462 504 646 0 648 578 6
49 83 1 645 0 81 1 646 1872 595 504 0 576 650 643 651 81 1 648 1871 462 544 650
 0 652 576 653 83 1 649 0 14 544 1140 648 ?541 504 542 14 572 +0 0 541 504 40 81
 1 650 1870 595 544 0 648 654 646 655 81 1 652 1869 462 541 654 0 656 648 657 83
 1 653 0 14 541 1144 652 ?538 544 539 14 574 +0 0 538 544 40 81 1 654 1868 595 5
41 0 652 658 650 659 81 1 656 1867 462 538 658 0 660 652 661 83 1 657 0 14 538 1
148 656 ?535 541 537 14 662 +0 0 535 541 40 81 1 658 1866 595 538 0 656 663 654
 664 81 1 660 1865 462 535 663 0 665 656 666 83 1 661 0 14 535 1152 660 ?232 538
 534 14 667 -0 0 232 538 40 81 1 663 1864 595 535 0 660 668 658 669 81 1 665 186
3 462 232 668 0 670 660 671 83 1 666 0 14 232 1156 665 ?672 535 220 14 673 +0 0
 672 535 40 81 1 668 1862 595 232 0 665 674 663 675 81 1 670 1861 462 672 674 0
 676 665 677 83 1 671 0 14 672 1160 670 ?678 232 679 14 680 +0 0 678 232 40 81 1
 674 1860 595 672 0 670 681 668 682 81 1 676 1859 462 678 681 0 683 670 684 83 1
 677 0 14 678 1165 676 ?685 672 686 14 687 -0 0 685 672 40 81 1 681 1858 595 678
 0 676 688 674 689 81 1 683 1857 462 685 688 0 690 676 691 83 1 684 0 14 685 116
9 683 ?692 678 693 14 694 -0 0 692 678 40 81 1 688 1856 595 685 0 683 695 681 69
6 81 1 690 1855 462 692 695 0 697 683 698 83 1 691 0 14 692 1173 690 ?699 685 70
0 14 701 -0 0 699 685 40 81 1 695 1854 595 692 0 690 702 688 703 81 1 697 1853 4
62 699 702 0 704 690 705 83 1 698 0 14 699 1177 697 ?214 692 706 14 707 -0 0 214
 692 40 81 1 702 1852 595 699 0 697 708 695 709 81 1 704 1851 462 214 708 0 710
 697 711 83 1 705 0 14 214 1181 704 ?712 699 210 14 713 +0 0 712 699 40 81 1 708
 1850 595 214 0 704 714 702 715 81 1 710 1849 462 712 714 0 716 704 717 83 1 711
 0 14 712 1358 710 ?718 214 719 14 720 +0 0 718 214 40 81 1 714 1848 595 712 0 7
10 721 708 722 81 1 716 1847 462 718 721 0 723 710 724 83 1 717 0 14 718 1363 71
6 ?725 712 726 14 727 -0 0 725 712 40 81 1 721 1846 595 718 0 716 728 714 729 81
 1 723 1845 462 725 728 0 730 716 731 83 1 724 0 14 725 1392 723 ?732 718 733 14
 734 -0 0 732 718 40 81 1 728 1844 595 725 0 723 735 721 736 81 1 730 1843 462 7
32 735 0 0 723 737 83 1 731 0 14 732 1397 730 ?0 725 738 14 739 +0 0 0 725 40 81
 1 735 1842 595 732 0 730 0 728 740 83 1 737 0 83 3 740 .494117647058824 .494117
647058824 .525490196078431 15 738 1400 0 741 732 0 50 739 1407 0 732 0 734 0 +.0
111 -.0016 0 1 0 0 0 1 0 51 734 1405 0 725 739 727 0 -.0111 .01166 .00375 -1 0 0
 778e-6 0 0 1 50 727 1373 0 718 734 720 0 +-.0103 -.0016 0 1 0 0 0 1 0 51 720 13
71 0 712 727 713 0 +-.0103 .01166 .00375 1 0 0 778e-6 0 0 -1 50 713 1214 0 214 7
20 707 0 +.0122 .00865 .00579 .757768802353406 .652523135359877 0 -.652523135359
877 .757768802353406 0 50 707 1213 0 699 713 701 0 +.01181078865750996 .01144956
80106336 .00579 -.652523135359878 .757768802353406 0 -.757768802353406 -.6525231
35359878 0 50 701 1212 0 692 707 694 0 +-.0114 .00865 .0066 .757768802353406 -.6
52523135359878 0 .652523135359878 .757768802353406 0 50 694 1211 0 685 701 687 0
 +-.01135212671688082 .01174349800620292 .0066 .652523135359878 .757768802353406
 0 -.757768802353406 .652523135359878 0 50 687 1210 0 678 694 680 0 +-.01295 -.0
016 0 1 0 0 0 1 0 51 680 1209 0 672 687 673 0 +-.01295 .00865 .00375 1 0 0 .0018
023 0 0 -1 50 673 1208 0 232 680 469 0 +.01375 -.0016 0 1 0 0 0 1 0 51 469 1207
 0 228 673 667 0 -.01375 .00865 .00375 -1 0 0 .0018023 0 0 1 124 667 1206 0 535
 469 662 0 +742 743 51 662 1205 0 538 667 574 0 +.0079 .00859197238400067 .00356
25264268966 1 0 0 .003921578847308105 0 0 -1 126 255 742 FF3 1 15 2 6 5 13 2 FFF
11 3 744 745 746 747 748 125 255 743 0 1 0 1 0 1 0 1 2 BBBBBBBB????0 0 0 0 45 90
 744 .0079 -.0097 .0027 .0104 -.0097 .0027 .0079 -.0065627157792928 .00281330523
1610235 .0104 -.0065627157792928 .002813305231610235 .0079 -.00567759866159969 .
002905831816885825 .0104 -.00567759866159969 .002905831816885825 .0079 -.0026985
0046133363 .00330259570333907 .0104 -.00269850046133363 .00330259570333907 .0079
 -.000993459612009071 .00367699452169692 .0104 -.000993459612009071 .00367699452
169692 .0079 .000110519204702429 .003929474863812305 .0104 .000110519204702429 .
003929474863812305 .0079 .001208210611521524 .00424382924399792 .0104 .001208210
611521524 .00424382924399792 .0079 .00225760638806497 .00459624831927345 .0104 .
00225760638806497 .00459624831927345 .0079 .003260243871442935 .0049703433099098
3 .0104 .003260243871442935 .00497034330990983 .0079 .004323723302043265 .005448
85625637287 .0104 .004323723302043265 .00544885625637287 .0079 .0048916508146793
1 .00576086726782802 .0104 .00489165081467931 .00576086726782802 .0079 .00587621
675026083 .00634558783920795 .0104 .00587621675026083 .00634558783920795 .0079 .
00631097518956021 .00676708833645091 .0104 .00631097518956021 .00676708833645091
 .0079 .00651879907425204 .00681375344070941 .0104 .00651879907425204 .006813753
44070941 .0079 .00723 .00724 .0104 .00723 .00724 127 13 745 4 1 1 1 1 1 1 1 1 1
 1 1 4 127 2 746 2 2 128 13 747 0 .1638177998193575 .2678275996833125 .360463809
3574715 .440972459045718 .515199241378454 .589925128054011 .664702706965925 .734
915972725894 .805129238485863 .866402782132182 .923177883705942 1 128 2 748 0 1
 51 574 1204 0 541 662 572 0 +.0079 .00877650264092857 .00374242020675115 1 0 0
 .00366387128484198 0 0 -1 17 741 0 738 741 741 0 749 750 0 0 +17 749 0 733 749
 749 0 741 750 0 0 -16 750 1390 0 ?741 751 752 753 0 0 10 16 751 1356 0 ?754 224
 750 755 0 0 10 16 752 1388 0 ?756 750 0 757 0 0 10 31 753 1409 0 750 0 757 0 +.
0111 .01166 .00375 1 0 0 0 0 -1 778e-6 31 757 1408 0 752 753 758 0 +.0104 .01166
 .00375 1 0 0 0 0 -1 778e-6 31 758 1375 0 224 757 755 0 +-.0103 .01166 .00375 1
 0 0 0 0 -1 778e-6 16 224 1354 0 ?759 212 751 758 0 0 10 31 755 1374 0 751 758 2
25 0 +-.0096 .01166 .00375 1 0 0 0 0 -1 778e-6 30 225 1280 0 212 755 760 0 +.013
75 .00685 .00579 0 0 -1 30 760 1279 0 223 225 231 0 +.01065 .01045 .00579 0 0 -1
 16 223 971 0 ?217 216 212 760 0 0 10 32 231 1278 0 216 760 761 0 +.0122 .00865
 .00375 .757768802353406 .652523135359877 0 -.652523135359877 .757768802353406 0
 .00237842993061022 .0018023 30 761 1277 0 762 231 763 0 +-.00985 .01045 .0066 0
 0 -1 16 762 969 0 ?764 765 219 761 0 0 10 30 763 1276 0 765 761 766 0 +-.01295
 .00685 .0066 0 0 -1 16 765 961 0 ?767 768 762 763 0 0 10 32 766 1275 0 768 763
 241 0 --.0114 .00865 .00375 .757768802353406 -.652523135359878 0 .6525231353598
78 .757768802353406 0 .00237842993061022 .0018023 16 768 967 0 ?201 769 765 766
 769 769 10 31 241 1274 0 234 766 242 0 +-.01295 .00865 .00375 1 0 0 0 0 -1 .001
8023 17 201 0 700 764 195 199 770 768 0 771 +16 769 965 0 ?90 240 768 766 768 76
8 10 17 90 0 700 195 764 88 772 769 0 767 +16 240 867 0 ?773 234 769 242 0 0 10
 17 773 0 774 773 773 0 775 240 0 0 +15 774 1099 0 773 522 520 17 775 0 776 775
 775 0 773 240 0 0 -15 776 1164 0 775 672 0 15 700 1176 0 90 692 0 17 195 0 700
 201 90 183 767 765 0 770 -17 764 0 700 90 201 196 771 762 0 772 +17 772 0 679 7
77 239 196 90 769 0 0 -17 767 0 686 778 778 88 195 765 0 239 +15 686 1168 0 778
 678 0 17 778 0 686 767 767 183 239 234 0 0 -17 239 0 679 772 770 88 778 234 0 0
 +15 679 1163 0 772 672 776 17 770 0 679 239 777 183 201 768 0 778 -17 777 0 679
 770 772 199 198 247 0 0 -17 198 0 693 771 771 196 777 247 0 764 +15 693 1172 0
 198 685 0 17 771 0 693 198 198 199 764 762 0 777 -16 219 973 0 ?87 762 216 231
 216 216 10 17 217 0 706 207 207 202 215 223 0 227 +15 706 1180 0 217 699 0 17 2
07 0 706 217 217 205 227 230 0 215 -17 215 0 210 87 204 205 217 223 0 218 -17 21
8 0 226 227 222 205 87 219 0 0 -17 759 0 719 759 759 0 779 224 0 0 +15 719 1361
 0 759 712 780 17 779 0 726 779 779 0 759 224 0 0 -15 726 1366 0 779 718 0 15 78
0 1362 0 781 712 0 17 781 0 780 781 781 0 754 751 0 0 -17 754 0 589 754 754 0 78
1 751 0 0 +15 589 1344 0 754 522 774 17 756 0 782 756 756 0 783 752 0 0 +15 782
 1396 0 756 725 0 17 783 0 581 783 783 0 756 752 0 0 -15 581 1378 0 783 531 784
 15 784 1130 0 785 531 530 17 785 0 784 785 785 0 246 244 0 0 -17 246 0 468 246
 246 0 785 244 0 0 +15 468 1074 0 246 228 226 15 733 1395 0 749 725 782 83 3 736
 .494117647058824 .494117647058824 .525490196078431 83 3 729 .494117647058824 .4
94117647058824 .525490196078431 83 3 722 .494117647058824 .494117647058824 .5254
90196078431 83 3 715 .494117647058824 .494117647058824 .525490196078431 83 3 709
 .494117647058824 .494117647058824 .525490196078431 83 3 703 .494117647058824 .4
94117647058824 .525490196078431 83 3 696 .494117647058824 .494117647058824 .5254
90196078431 83 3 689 .494117647058824 .494117647058824 .525490196078431 83 3 682
 .494117647058824 .494117647058824 .525490196078431 83 3 675 .494117647058824 .4
94117647058824 .525490196078431 83 3 669 .494117647058824 .494117647058824 .5254
90196078431 83 3 664 .494117647058824 .494117647058824 .525490196078431 83 3 659
 .494117647058824 .494117647058824 .525490196078431 83 3 655 .494117647058824 .4
94117647058824 .525490196078431 83 3 651 .494117647058824 .494117647058824 .5254
90196078431 83 3 647 .494117647058824 .494117647058824 .525490196078431 83 3 644
 .494117647058824 .494117647058824 .525490196078431 83 3 641 .494117647058824 .4
94117647058824 .525490196078431 83 3 638 .494117647058824 .494117647058824 .5254
90196078431 83 3 635 .494117647058824 .494117647058824 .525490196078431 83 3 598
 .494117647058824 .494117647058824 .525490196078431 79 21 594 SDL/TYSA_TRANSLUCE
NCY83 1 571 0 83 1 568 0 126 562 FF3 1 15 2 6 5 13 2 FFF11 3 786 787 788 789 790
 125 563 0 1 0 1 0 1 0 1 2 BBBBBBBB????0 0 0 0 45 90 786 -.0096 -.0097 .0027 -.0
071 -.0097 .0027 -.0096 -.0065627157792928 .002813305231610235 -.0071 -.00656271
57792928 .002813305231610235 -.0096 -.00567759866159969 .002905831816885825 -.00
71 -.00567759866159969 .002905831816885825 -.0096 -.00269850046133363 .003302595
70333907 -.0071 -.00269850046133363 .00330259570333907 -.0096 -.0009934596120090
71 .00367699452169692 -.0071 -.000993459612009071 .00367699452169692 -.0096 .000
110519204702429 .003929474863812305 -.0071 .000110519204702429 .0039294748638123
05 -.0096 .001208210611521524 .00424382924399792 -.0071 .001208210611521524 .004
24382924399792 -.0096 .00225760638806497 .00459624831927345 -.0071 .002257606388
06497 .00459624831927345 -.0096 .003260243871442935 .00497034330990983 -.0071 .0
03260243871442935 .00497034330990983 -.0096 .004323723302043265 .005448856256372
87 -.0071 .004323723302043265 .00544885625637287 -.0096 .00489165081467931 .0057
6086726782802 -.0071 .00489165081467931 .00576086726782802 -.0096 .0058762167502
6083 .00634558783920795 -.0071 .00587621675026083 .00634558783920795 -.0096 .006
31097518956021 .00676708833645091 -.0071 .00631097518956021 .00676708833645091 -
.0096 .00651879907425204 .00681375344070941 -.0071 .00651879907425204 .006813753
44070941 -.0096 .00723 .00724 -.0071 .00723 .00724 127 13 787 4 1 1 1 1 1 1 1 1
 1 1 1 4 127 2 788 2 2 128 13 789 0 .1638177998193575 .2678275996833125 .3604638
093574715 .440972459045718 .515199241378454 .589925128054011 .664702706965925 .7
34915972725894 .805129238485863 .866402782132182 .923177883705942 1 128 2 790 0
 1 83 1 558 0 17 236 0 530 272 137 180 543 233 0 0 +17 272 0 530 275 236 177 540
 237 0 0 +17 319 0 510 511 155 156 506 317 0 507 +17 46 0 45 426 43 78 49 421 0
 0 -83 1 487 0 83 1 476 0 83 1 466 0 17 63 0 440 423 441 61 444 433 0 445 +19 35
 146 0 10 0 18 14 0 S0 74 20 33 4 0 0 474 471 31 12 0 0 0 0 0 0 0 0 0 0 0 0 0 0
 0 0 81 1 31 1916 26 10 0 12 0 0 791 84 5 791 Corps98 5 32 67 111 114 112 115 74
 20 9 2 0 0 7 2 0 0 0 0 0 0 0 0 0 0 0 0 0 0 0 0 0 0 81 1 7 1 26 1 0 2 0 0 792 84
 4 792 root98 4 8 114 111 111 116 1 0 
